<svg version="1.2" xmlns="http://www.w3.org/2000/svg" viewBox="0 0 1595 1530" width="1595" height="1530">
	<title>Screenshot 2024-08-01 at 12</title>
	<style>
		.s0 { fill: #b2b1a8 } 
		.s1 { opacity: 1;fill: #efe7f3 } 
		.s2 { fill: #9e86a4 } 
		.s3 { fill: #d44728 } 
		.s4 { fill: #cad6e8 } 
		.s5 { fill: #886ab3 } 
		.s6 { fill: #30223d } 
		.s7 { fill: #020101 } 
		.s8 { fill: #231df0 } 
		.s9 { fill: #b399c7 } 
		.s10 { fill: #74657d } 
		.s11 { fill: #d6b2e4 } 
		.s12 { fill: #846098 } 
		.s13 { fill: #a836d5 } 
		.s14 { fill: #a867c4 } 
		.s15 { fill: #cf43ec } 
		.s16 { fill: #d070e8 } 
		.s17 { fill: #832cb8 } 
		.s18 { fill: #cd94e6 } 
	</style>
	<g id="Background">
		<path id="Path 0" class="s0" d="m1095 1308l6-5v1l-20 10 4-2z"/>
		<path id="Path 1" class="s1" d="m19 750h1v1h-1z"/>
		<path id="Path 2" class="s2" d="m190 459l26-31 8 9-34 33z"/>
		<path id="Path 3" class="s3" d="m1205 249h1v1h-1z"/>
		<path id="Path 4" class="s4" d="m529 209h1v1h-1z"/>
		<path id="Path 5" class="s0" d="m993 111h1v1h-1z"/>
		<path id="Path 6" class="s1" d="m1738 1592l38-19v-1639h7v1658z"/>
		<path id="Path 7" class="s4" d="m562 171l296-181 26 22v3l-27-21-153 137-3 1-138 92z"/>
		<path id="Path 8" class="s5" d="m704 131l153-137 27 21 54 53 29 30-90-3-74-7h-38l41 10 232 56 2 2-263-18z"/>
		<path id="Path 9" class="s1" d="m884 15v-3l59 54-5 2z"/>
		<path id="Path 10" class="s4" d="m938 68l5-2 53 48h-1l-1-2-1-1-8-3-18-10z"/>
		<path id="Path 11" class="s6" d="m806 98l-41-10h38z"/>
		<path id="Path 12" class="s7" d="m806 98l-3-10 74 7 112 20 9 4 47 29-7 6z"/>
		<path id="Path 13" class="s8" d="m877 95l90 3 18 10 4 7z"/>
		<path id="Path 14" class="s6" d="m989 115l-4-7 8 3 1 1 1 2 3 5z"/>
		<path id="Path 15" class="s0" d="m998 119l-3-5h1l65 43-4-1-12-8z"/>
		<path id="Path 16" class="s1" d="m563 224l138-92-32 127-20 49-4-3z"/>
		<path id="Path 17" class="s0" d="m701 132l3-1 73 7 230 72 55-22 5-25v-3l114 74v1l-74-49 73 76-232 6 31-20 1-1-2-7-235 52-46 10-28-43z"/>
		<path id="Path 18" class="s9" d="m1062 188l-55 22-230-72 263 18 15 3 8 7z"/>
		<path id="Path 19" class="s6" d="m1038 154l7-6 12 8-2 3-15-3z"/>
		<path id="Path 20" class="s2" d="m1055 159l2-3 4 1 6 3v3l-4 3z"/>
		<path id="Path 21" class="s10" d="m1063 166l4-3-5 25z"/>
		<path id="Path 22" class="s10" d="m562 171l1 53 82 81v1l-82-76-1-56v-2z"/>
		<path id="Path 23" class="s7" d="m562 174l1 56 82 76-188-82 1-44 79 35z"/>
		<path id="Path 24" class="s0" d="m530 210l32-38v2l-25 41-79-35-1 44v3l-74 72-26 4 3-46 95-80 74 32z"/>
		<path id="Path 25" class="s3" d="m1180 262l-73-76 74 49 25 17 35 25 22 16 1 1-81-30z"/>
		<path id="Path 26" class="s2" d="m457 227v-3l188 82v-1l4 3 1 14-169 96-1-9-10-72z"/>
		<path id="Path 27" class="s1" d="m383 299l74-72 13 110z"/>
		<path id="Path 28" class="s1" d="m1181 235v-1l24 15 1 1v2z"/>
		<path id="Path 29" class="s7" d="m743 292l235-52 2 7-1 1-31 20-16 8-12 1-35 5-30 4-11 2h-4l-11 1-65 9h-1l-14 2h-6z"/>
		<path id="Path 30" class="s6" d="m979 247h1v1h-1z"/>
		<path id="Path 31" class="s11" d="m649 308l20-49 28 43h-3l-27 8 34-4 42-6h6l14-2h1l65-7 11-3h4l11-1 30-4 35-5h11v4l-54 57-126 127-40 71-21 132-71 17-2-12 8-58 56 10-36-236 5-68z"/>
		<path id="Path 32" class="s9" d="m948 268l232-6 3 2-130 183-15 7-13-14-87-155-7-3v-4l1-2z"/>
		<path id="Path 33" class="s2" d="m1053 447l130-183 81 30h2l35 93 157 177 5 4 2 4 1 2 5 33h-2l-12-39-180-53-14-5-2-3 62-76-166 8-12-1 10-12 28-12 54-36-57 10-13 6-14 7-99 46z"/>
		<path id="Path 34" class="s10" d="m920 277l12-1-1 2h-11z"/>
		<path id="Path 35" class="s12" d="m885 282l35-5v1l-35 5z"/>
		<path id="Path 36" class="s1" d="m1263 293l-22-16 25 17h-2z"/>
		<path id="Path 37" class="s2" d="m1263 293h1v1h-1z"/>
		<path id="Path 38" class="s10" d="m855 286l30-4v1l-30 4z"/>
		<path id="Path 39" class="s13" d="m877 339l54-57 7 3 4 124 5 238v5l-4 4-119-162-5 1-10-51z"/>
		<path id="Path 40" class="s1" d="m938 285l87 155-83-31z"/>
		<path id="Path 41" class="s2" d="m844 288l11-2v1z"/>
		<path id="Path 42" class="s2" d="m829 289l11-1-11 3z"/>
		<path id="Path 43" class="s10" d="m764 298l65-9v2z"/>
		<path id="Path 44" class="s6" d="m697 302l46-10v8l-42 6-7-4z"/>
		<path id="Path 45" class="s4" d="m357 303l26-4 87 38 10 72-9 4-113-89-66 53-43 36-16 7-17 8-26 31h-3z"/>
		<path id="Path 46" class="s0" d="m216 428l17-8-9 17z"/>
		<path id="Path 47" class="s10" d="m701 306l-34 4 27-8z"/>
		<path id="Path 48" class="s14" d="m481 418l169-96-5 68-20 226-8 58-130-207 7 360-139-372-16 156-22 121-46-193-2-28 2-9 82-72 120-13z"/>
		<path id="Path 49" class="s5" d="m292 377l66-53 113 89 2 4-120 13z"/>
		<path id="Path 50" class="s14" d="m751 466l126-127-68 105z"/>
		<path id="Path 51" class="s10" d="m1180 388l57-10-54 36-11-11 3-6z"/>
		<path id="Path 52" class="s2" d="m249 413l43-36 61 53-82 72z"/>
		<path id="Path 53" class="s6" d="m1167 394l13-6-5 9z"/>
		<path id="Path 54" class="s1" d="m625 616l20-226 36 236z"/>
		<path id="Path 55" class="s7" d="m1153 401l14-7 8 3-3 6-4 4z"/>
		<path id="Path 56" class="s6" d="m1054 447l99-46 15 6-13 19-10 12h-1l-91 14z"/>
		<path id="Path 57" class="s12" d="m1168 407l4-4 11 11-28 12z"/>
		<path id="Path 58" class="s11" d="m471 413l9-4 1 9-8-1z"/>
		<path id="Path 59" class="s15" d="m947 647l-5-238 83 31 13 14 15-2 91-14-93 307-6 17-8 25-80-68 60 371h-7l-186-596 119 162 15 4z"/>
		<path id="Path 60" class="s9" d="m233 420l16-7 22 89-2 9-82-29v-2l3-10 34-33z"/>
		<path id="Path 61" class="s9" d="m1157 439l166-8-62 76h-8l-5-1z"/>
		<path id="Path 62" class="s16" d="m1051 745l93-307h1l12 1 91 67-26 42-160 199z"/>
		<path id="Path 63" class="s15" d="m751 466l58-22 10 51 4 126-32 16-30 221-12-16-38-305z"/>
		<path id="Path 64" class="s10" d="m1038 454l15-7h1l-1 5z"/>
		<path id="Path 65" class="s11" d="m339 611l16-156 139 372 12 55 41 210-112 14 46-211-7-25-31 34-67 69-41-253z"/>
		<path id="Path 66" class="s1" d="m187 480v-21h3v11z"/>
		<path id="Path 67" class="s13" d="m494 827l-7-360 130 207 2 12-10 365h-1l-102-169z"/>
		<path id="Path 68" class="s0" d="m177 492l10-10v3l-10 9z"/>
		<path id="Path 69" class="s5" d="m187 485v-3l82 29 2 28-43 121h-5l-78-44-52 19 52-62 21-27 17-47z"/>
		<path id="Path 70" class="s6" d="m177 494l10-9-4 14-7-3z"/>
		<path id="Path 71" class="s4" d="m17 652l160-160v2l-1 2-75 84-41 45-34 38-1 8-3 110-3-30 1-1-3-14z"/>
		<path id="Path 72" class="s17" d="m819 495l5-1 186 596-171-294-16-175z"/>
		<path id="Path 73" class="s7" d="m176 496l7 3-17 47-65 34z"/>
		<path id="Path 74" class="s18" d="m1222 548l26-42 5 1 8 9 105 162-47 14z"/>
		<path id="Path 75" class="s10" d="m1261 516l-8-9h8l2 3v6z"/>
		<path id="Path 76" class="s6" d="m1263 516v-6l14 5-5 5z"/>
		<path id="Path 77" class="s7" d="m1272 520l5-5 180 53 12 39 6 46z"/>
		<path id="Path 78" class="s2" d="m1366 678l-105-162h2l9 4 203 133 2 3-3 98-1 135-4 5z"/>
		<path id="Path 79" class="s13" d="m690 669l21-132 38 305z"/>
		<path id="Path 80" class="s17" d="m228 660l43-121 46 193-2 36z"/>
		<path id="Path 81" class="s6" d="m101 580l65-34-21 27-85 52z"/>
		<path id="Path 82" class="s11" d="m1062 747l160-199 97 144-282 95 8-25z"/>
		<path id="Path 83" class="s10" d="m60 625l85-52-52 62-67 28z"/>
		<path id="Path 84" class="s4" d="m1471 607l-5-33 114 156h-1l-74-55-24-18z"/>
		<path id="Path 85" class="s8" d="m1475 653l-6-46h2l10 50-4-1z"/>
		<path id="Path 86" class="s10" d="m317 732l22-121-4 109-10 212-11-82 1-82z"/>
		<path id="Path 87" class="s9" d="m93 635l52-19-7 142 7 47-20 29-100-163 1-8z"/>
		<path id="Path 88" class="s11" d="m138 758l7-142 78 44-51 94z"/>
		<path id="Path 89" class="s13" d="m761 858l30-221 32-16 16 175 171 294h7l8 4v46l-215-207-48-47z"/>
		<path id="Path 90" class="s18" d="m947 647l11 13-11-8z"/>
		<path id="Path 91" class="s16" d="m943 656l4-4 11 8z"/>
		<path id="Path 92" class="s12" d="m1474 754l3-98 4 1 24 18z"/>
		<path id="Path 93" class="s14" d="m172 754l51-94h5l87 108-1 82-45 132-133-116-11-26v-6l20-29z"/>
		<path id="Path 94" class="s16" d="m619 686l71-17 59 173 12 16 1 28-153 165z"/>
		<path id="Path 95" class="s5" d="m22 781l3-110 100 163v6l-74-43-26-14 12 19-3-1z"/>
		<path id="Path 96" class="s10" d="m1474 754l31-79 74 55-8 13-30 50-13 20-31 50-18 27-6-1z"/>
		<path id="Path 97" class="s14" d="m1319 692l47-14 103 216 4 6-11 18-193 72-120 173-19 3-81-320-24 248-8-4-60-371 80 68z"/>
		<path id="Path 98" class="s4" d="m325 932l10-212 41 253-55 61z"/>
		<path id="Path 99" class="s1" d="m1571 743l8-13h1l-8 15z"/>
		<path id="Path 100" class="s11" d="m1541 793l30-50 1 2-30 53z"/>
		<path id="Path 101" class="s18" d="m1045 762l6-17 11 2z"/>
		<path id="Path 102" class="s18" d="m138 758l34-4-27 51z"/>
		<path id="Path 103" class="s7" d="m37 802l-12-19 26 14 116 166 20 59-2 4-147-222z"/>
		<path id="Path 104" class="s18" d="m1528 813l13-20 1 5-11 20z"/>
		<path id="Path 105" class="s6" d="m167 963l-116-166 74 43 11 26z"/>
		<path id="Path 106" class="s4" d="m37 804l-3-3 3 1z"/>
		<path id="Path 107" class="s6" d="m37 804v-2l1 2z"/>
		<path id="Path 108" class="s0" d="m187 1031l-150-227h1l147 222z"/>
		<path id="Path 109" class="s16" d="m1497 863l31-50 3 5-22 40-7 9z"/>
		<path id="Path 110" class="s9" d="m1025 1094l24-248 81 320-80-18-25-6v-2z"/>
		<path id="Path 111" class="s5" d="m136 866l133 116 45-132 11 82-4 102v3h-3l-45-43-68 28h-18l-20-59z"/>
		<path id="Path 112" class="s1" d="m1502 867l7-9-8 13z"/>
		<path id="Path 113" class="s15" d="m1479 890l18-27 5 4-1 4v1l-25 44-4 9-33 57h-6l29-64 11-18z"/>
		<path id="Path 114" class="s4" d="m443 904l31-34 7 25z"/>
		<path id="Path 115" class="s12" d="m547 1092l-41-210 102 169-3 13h-5l-53 29z"/>
		<path id="Path 116" class="s11" d="m609 1051l153-165 48 47-43 53-5 205-77 36 67 228-148-74-49-39 50-278 3-13z"/>
		<path id="Path 117" class="s12" d="m1469 894l4-5 6 1-6 10z"/>
		<path id="Path 118" class="s1" d="m443 904l38-9-46 211-5 1-109-70v-3l55-61z"/>
		<path id="Path 119" class="s12" d="m1269 990l193-72-29 64-8 19-9 18-10 22-10 19-14 26-8 1h-5z"/>
		<path id="Path 120" class="s1" d="m1439 982l33-57-36 64z"/>
		<path id="Path 121" class="s18" d="m752 1455l-67-228 77-36 5-205 43-53 215 207v2 3l-259 317z"/>
		<path id="Path 122" class="s16" d="m1425 1001l8-19h6l-3 7-5 11z"/>
		<path id="Path 123" class="s2" d="m1149 1163l120-173 100 97-17 7z"/>
		<path id="Path 124" class="s10" d="m205 1022l68-28 45 43-113-1z"/>
		<path id="Path 125" class="s18" d="m1425 1001l6-1-11 20-4-1z"/>
		<path id="Path 126" class="s11" d="m1406 1041l10-22 4 1-12 21z"/>
		<path id="Path 127" class="s12" d="m185 1026l2-4h18v14l-17-3-1-2z"/>
		<path id="Path 128" class="s0" d="m267 1136l-79-103 17 3 113 1h3l109 70-61 67-19-1-65-55-27-23 10 41z"/>
		<path id="Path 129" class="s1" d="m1396 1060l10-19h2l-12 20z"/>
		<path id="Path 130" class="s3" d="m547 1093l53-29-99 101z"/>
		<path id="Path 131" class="s9" d="m1382 1086l14-26v1l-15 40h-2z"/>
		<path id="Path 132" class="s2" d="m547 1093l-46 72 99-101h5l-50 278-8-8-1-4-75-144-38-8-50 4-4-3-10-5 61-67 5-1 112-14z"/>
		<path id="Path 133" class="s10" d="m1374 1087l8-1-3 15-4 27-3 10-13 66-6 33-42 3-122 2-78 1-2-1 248-144z"/>
		<path id="Path 134" class="s6" d="m1352 1094l17-7h5l-17 11z"/>
		<path id="Path 135" class="s7" d="m1149 1163l203-69 5 4-248 144h-4l-76-96 21 2 80 18z"/>
		<path id="Path 136" class="s6" d="m268 1136l-10-41 27 23-16 19z"/>
		<path id="Path 137" class="s11" d="m1375 1128l4-27h2l-5 27z"/>
		<path id="Path 138" class="s7" d="m269 1137l16-19 65 55 29 6 4 3 24 36h-7l-91 7-5 1-14-4-4-13-15-62z"/>
		<path id="Path 139" class="s4" d="m1372 1138l3-10h1l-3 14z"/>
		<path id="Path 140" class="s2" d="m269 1147l-2-11h1l1 1 2 10z"/>
		<path id="Path 141" class="s0" d="m1359 1204l13-66 1 4-12 62z"/>
		<path id="Path 142" class="s12" d="m1025 1145v-3l25 6-21-2z"/>
		<path id="Path 143" class="s5" d="m766 1462l259-317 4 1 76 96-1 3-5 3-29 18z"/>
		<path id="Path 144" class="s0" d="m284 1209l-15-62h2l15 62h-1z"/>
		<path id="Path 145" class="s10" d="m379 1179l-29-6 19 1z"/>
		<path id="Path 146" class="s12" d="m383 1182l50-4-14 40h-12z"/>
		<path id="Path 147" class="s5" d="m419 1218l14-40 38 8-38 44z"/>
		<path id="Path 148" class="s17" d="m433 1230l38-44 75 144-42-37-8-6-34-31-7-6z"/>
		<path id="Path 149" class="s4" d="m1353 1237l6-33h2l-7 33z"/>
		<path id="Path 150" class="s1" d="m287 1216l-3-7h1z"/>
		<path id="Path 151" class="s2" d="m287 1216l-2-7h1l4 13h-3z"/>
		<path id="Path 152" class="s4" d="m309 1225l91-7h7 12l14 12 22 20v2l-151-23v-3z"/>
		<path id="Path 153" class="s0" d="m304 1229l-17-7h3l14 4z"/>
		<path id="Path 154" class="s11" d="m1311 1240l42-3h1l-43 4z"/>
		<path id="Path 155" class="s16" d="m1189 1242l122-2v1l-122 10z"/>
		<path id="Path 156" class="s8" d="m1104 1245l1-3h4l2 1 15 29-1 1v3h-1l-23 27-6 5z"/>
		<path id="Path 157" class="s15" d="m1125 1272h1v1h-1z"/>
		<path id="Path 158" class="s15" d="m1111 1243l78-1v9l-60 21h-3z"/>
		<path id="Path 159" class="s7" d="m1099 1248l5-3-9 63-10 4-10 3-34 7 47-60z"/>
		<path id="Path 160" class="s6" d="m1070 1266l29-18-11 14-12 6z"/>
		<path id="Path 161" class="s9" d="m455 1252v-2l7 6h-3z"/>
		<path id="Path 162" class="s11" d="m496 1289l-37-33h3l34 31z"/>
		<path id="Path 163" class="s8" d="m1076 1268l12-6-47 60-23 19-44 35-12 10-6 4-50 41h-2l-41 32-31 24h-1l-2-1z"/>
		<path id="Path 164" class="s7" d="m766 1462l304-196 6 2-247 218-10 10-1 1-14 11-22 11z"/>
		<path id="Path 165" class="s5" d="m818 1496h1v1h-1z"/>
		<path id="Path 166" class="s1" d="m1125 1273l1-1h3l-4 4z"/>
		<path id="Path 167" class="s1" d="m1101 1303l23-27-23 28z"/>
		<path id="Path 168" class="s9" d="m496 1289v-2l8 6-2 1z"/>
		<path id="Path 169" class="s11" d="m502 1294l2-1 42 37 1 4z"/>
		<path id="Path 170" class="s10" d="m1075 1315l10-3-4 2z"/>
		<path id="Path 171" class="s0" d="m1075 1315l6-1-62 27h-1l23-19z"/>
		<path id="Path 172" class="s1" d="m974 1376l44-35h1z"/>
		<path id="Path 173" class="s15" d="m604 1381l148 74 14 7 16 57-35-24-55-44-18-14-17-13-35-28z"/>
		<path id="Path 174" class="s11" d="m674 1439l-17-15 17 13z"/>
		<path id="Path 175" class="s1" d="m863 1463l41-32-41 34z"/>
		<path id="Path 176" class="s18" d="m674 1439v-2l18 14z"/>
		<path id="Path 177" class="s11" d="m747 1496l-55-45 55 44z"/>
		<path id="Path 178" class="s11" d="m832 1487l31-24v2l-30 23z"/>
		<path id="Path 179" class="s5" d="m819 1496l10-10 2 1-9 9z"/>
		<path id="Path 180" class="s4" d="m822 1496l9-9h1l1 1z"/>
		<path id="Path 181" class="s18" d="m747 1496v-1l35 24 22-11v3z"/>
		<path id="Path 182" class="s4" d="m818 1497l1-1h3l-18 15v-3z"/>
	</g>
</svg>